<svg xmlns="http://www.w3.org/2000/svg" viewBox="0 0 800 400" fill="none">
  <rect width="800" height="400" rx="20" fill="#0f172a"/>
  <rect x="24" y="24" width="180" height="352" rx="12" fill="#1e293b"/>
  <rect x="220" y="24" width="556" height="72" rx="12" fill="#1e293b"/>
  <rect x="220" y="112" width="360" height="264" rx="12" fill="#1e293b"/>
  <rect x="596" y="112" width="180" height="264" rx="12" fill="#1e293b"/>
  <rect x="44" y="56" width="120" height="10" rx="5" fill="#4f46e5"/>
  <rect x="44" y="84" width="90" height="8" rx="4" fill="#334155"/>
  <rect x="44" y="108" width="90" height="8" rx="4" fill="#334155"/>
  <rect x="44" y="132" width="90" height="8" rx="4" fill="#334155"/>
  <rect x="44" y="156" width="90" height="8" rx="4" fill="#334155"/>
  <circle cx="240" cy="60" r="8" fill="#4f46e5"/>
  <rect x="260" y="52" width="160" height="16" rx="8" fill="#334155"/>
  <circle cx="320" cy="200" r="28" fill="#4f46e5"/>
  <circle cx="240" cy="280" r="18" fill="#06b6d4"/>
  <circle cx="400" cy="280" r="18" fill="#06b6d4"/>
  <circle cx="280" cy="340" r="14" fill="#818cf8"/>
  <circle cx="360" cy="340" r="14" fill="#818cf8"/>
  <path d="M320 228v24M296 252l-44 16M344 252l44 16M268 296l8 32M372 296l-8 32" stroke="#818cf8" stroke-width="3" stroke-linecap="round"/>
  <rect x="620" y="140" width="132" height="12" rx="6" fill="#4f46e5"/>
  <rect x="620" y="170" width="100" height="8" rx="4" fill="#334155"/>
  <rect x="620" y="190" width="120" height="8" rx="4" fill="#334155"/>
  <rect x="620" y="210" width="80" height="8" rx="4" fill="#334155"/>
  <rect x="620" y="250" width="132" height="40" rx="8" fill="#4f46e5" opacity=".25"/>
  <text x="250" y="150" fill="#94a3b8" font-family="Inter, Arial, sans-serif" font-size="14" font-weight="600">Integration tree</text>
  <text x="616" y="150" fill="#94a3b8" font-family="Inter, Arial, sans-serif" font-size="14" font-weight="600">System detail</text>
</svg>
